{"title":"Daybreakers.2009.SWESUB.DVDRip.XviD.-Zen_Bud","uid":5611733,"size":1472132098,"categoryP":"video","categoryS":"movies","magnet":"?xt=urn:btih:717bd2caebbea46af06aacb1135f5fd49b1884c3&amp;dn=Daybreakers.2009.SWESUB.DVDRip.XviD.-Zen_Bud&amp;tr=udp%3A%2F%2Ftracker.openbittorrent.com%3A80&amp;tr=udp%3A%2F%2Fopen.demonii.com%3A1337&amp;tr=udp%3A%2F%2Ftracker.coppersurfer.tk%3A6969&amp;tr=udp%3A%2F%2Fexodus.desync.com%3A6969","seeders":1,"leechers":0,"uploader":"Zen_Bud","files":-1,"time":1275902274,"description":"General\nComplete name                    : Daybreakers.avi\nFormat                           : AVI\nFile size                        : 1.37 GiB\nDuration                         : 1h 37mn\nOverall bit rate                 : 2 007 Kbps\n\nVideo\nID                               : 0\nFormat                           : MPEG-4 Visualult (H.263)\nCodec ID                         : XVID\nCodec ID/Hint                    : XviD\nDuration                         : 1h 37mn\nBit rate                         : 1 834 Kbps\nWidth                            : 720 pixels\nHeight                           : 364 pixels\nDisplay aspect ratio             : 2.35:1\nChroma subsampling               : 4:2:0\nBit depth                        : 8 bits\nScan type                        : Progressive\nBits/(Pixel*Frame)               : 0.292\nStream size                      : 1.25 GiB (91%)\nWriting library                  : XviD 1.1.2 (UTC 2006-11-01)\n\nAudio\nID                               : 1\nFormat                           : MPEG Audio\nMode extension                   : MS Stereo\nCodec ID                         : 55\nCodec ID/Hint                    : MP3\nDuration                         : 1h 37mn\nBit rate                         : 160 Kbps\nChannel(s)                       : 2 channels\nSampling rate                    : 48.0 KHz\nStream size                      : 112 MiB (8%)\nWriting library                  : LAME3.98\n\n","torrent":{"xt":"urn:btih:717bd2caebbea46af06aacb1135f5fd49b1884c3","amp;dn":"Daybreakers.2009.SWESUB.DVDRip.XviD.-Zen_Bud","amp;tr":["udp%3A%2F%2Ftracker.openbittorrent.com%3A80","udp%3A%2F%2Fopen.demonii.com%3A1337","udp%3A%2F%2Ftracker.coppersurfer.tk%3A6969","udp%3A%2F%2Fexodus.desync.com%3A6969"],"infoHash":"717bd2caebbea46af06aacb1135f5fd49b1884c3","infoHashBuffer":{"type":"Buffer","data":[113,123,210,202,235,190,164,106,240,106,172,177,19,95,95,212,155,24,132,195]},"announce":[],"urlList":[]}}